<svg xmlns="http://www.w3.org/2000/svg" width="157" height="81" fill="none"><path fill="#040606" d="M137.806 80.714a1.66 1.66 0 0 1-1.362-.705 1.657 1.657 0 0 1 .404-2.312l14.472-10.156-17.063-3.86a1.66 1.66 0 0 1-1.254-1.985 1.66 1.66 0 0 1 1.989-1.251l20.714 4.685a1.659 1.659 0 0 1 .59 2.976L138.76 80.412c-.29.205-.626.302-.954.302"/><path fill="#040606" d="M83.41 74.44c-53.617.002-63.932-11.975-64.47-12.65l-.259-.328-.073-.41c-1.904-10.658 41.616-22.995 55-26.523 39.556-7.365 42.924-16.022 42.953-16.109l.08-.383.218-.21c1.753-2.225 1.437-3.476 1.047-4.224C112.174 2.627 44.357 2.305.178 4.76L-.007 1.45C11.463.81 112.301-4.314 120.855 12.07c.846 1.625 1.309 4.247-1.207 7.581-.91 2.266-6.87 10.96-45.311 18.112-25.197 6.646-51.912 16.9-52.47 22.27 2.837 2.492 26.1 19.053 130.41 6.26l.405 3.292c-28.717 3.523-51.406 4.854-69.272 4.854"/></svg>