<svg xmlns="http://www.w3.org/2000/svg" width="29" height="20" fill="none"><path fill="#fff" d="M14.192 11.402c1.182-.086 7.555-5.332 13.211-10.499A3.18 3.18 0 0 0 25.182 0H3.192a3.18 3.18 0 0 0-2.27.95c5.672 5.14 12.077 10.369 13.27 10.452"/><path fill="#fff" d="M22.533 7.135c-6.775 5.735-7.877 5.735-8.346 5.735s-1.57 0-8.347-5.688A235 235 0 0 1 .15 2.228a3.2 3.2 0 0 0-.15.964v13.219a3.19 3.19 0 0 0 3.19 3.19h21.99a3.19 3.19 0 0 0 3.191-3.193V3.19c0-.36-.062-.705-.172-1.028a235 235 0 0 1-5.666 4.973"/></svg>