<svg xmlns="http://www.w3.org/2000/svg" width="20" height="20" fill="none"><path fill="#fff" d="M4.433 0H15.26c1.224 0 2.332.496 3.14 1.304a4.45 4.45 0 0 1 1.305 3.129V15.26A4.47 4.47 0 0 1 18.4 18.4a4.47 4.47 0 0 1-3.14 1.305H4.433A4.45 4.45 0 0 1 1.304 18.4 4.42 4.42 0 0 1 0 15.26V4.433C0 3.22.496 2.1 1.304 1.304A4.4 4.4 0 0 1 4.433 0M15.26 1.755H4.433c-.74 0-1.409.3-1.893.785a2.67 2.67 0 0 0-.785 1.893V15.26c0 .74.3 1.409.785 1.893a2.63 2.63 0 0 0 1.893.797H15.26c.74 0 1.409-.3 1.893-.797a2.63 2.63 0 0 0 .797-1.893V4.433c0-.74-.3-1.409-.797-1.893a2.67 2.67 0 0 0-1.893-.785"/><path fill="#fff" d="M15.375 3.44c.242 0 .473.092.623.254a.862.862 0 0 1 0 1.247.86.86 0 0 1-1.247 0 .85.85 0 0 1-.254-.624c0-.242.093-.461.254-.623a.87.87 0 0 1 .624-.254m-5.53 1.628a4.8 4.8 0 0 1 3.382 1.396 4.762 4.762 0 0 1 0 6.764 4.76 4.76 0 0 1-6.764 0 4.8 4.8 0 0 1-1.397-3.381c0-1.316.543-2.517 1.397-3.383a4.82 4.82 0 0 1 3.382-1.396m2.136 2.655a3.03 3.03 0 0 0-2.136-.89c-.83 0-1.581.347-2.124.89a3 3 0 0 0-.888 2.124c0 .83.346 1.593.888 2.135a3 3 0 0 0 2.124.877c.832 0 1.593-.334 2.136-.877a3.02 3.02 0 0 0 .877-2.135c0-.832-.335-1.582-.877-2.124"/></svg>