<svg xmlns="http://www.w3.org/2000/svg" width="22" height="20" fill="none"><path fill="#fff" d="M16.152 19.383q-.446 0-.761-.316l-4.507-4.506L8.4 17.875q-.18.24-.46.354a1.05 1.05 0 0 1-.575.065 1.06 1.06 0 0 1-.526-.244 1.06 1.06 0 0 1-.323-.48l-2.011-6.038L.595 9.578a1.05 1.05 0 0 1-.447-.418 1.06 1.06 0 0 1-.147-.595 1.05 1.05 0 0 1 .202-.579 1.05 1.05 0 0 1 .484-.375L20.069.073q.281-.107.579-.056.297.053.523.252.225.2.316.488.09.288.017.581l-4.307 17.23a1.08 1.08 0 0 1-1.045.815m-4.61-7.21L15.57 16.2l3.338-13.365L3.731 8.738 5.87 9.805q.398.2.538.623l1.504 4.51 1.437-1.915-.416-.417a1.07 1.07 0 0 1-.316-.76q0-.214.083-.413.081-.197.233-.35l4.307-4.306a1.077 1.077 0 0 1 1.522 1.522l-3.546 3.546.303.304z"/></svg>