<svg xmlns="http://www.w3.org/2000/svg" width="93" height="93" fill="none"><path fill="#fff" d="M43.204.38c-11.053.822-21.133 5.367-29.049 13.1C3.745 23.634-1.247 38.013.597 52.458 2.902 70.519 15.638 85.56 33.132 90.88c13.526 4.12 28.58 1.675 40.047-6.484 14.09-10.04 21.42-26.69 19.245-43.736C90.119 22.601 77.383 7.56 59.889 2.24 54.682.646 48.61-.028 43.203.38m3.53 28.687c2.367.234 3.552.607 4.084 1.302q.31.491.49 1.046c.279.81.29 1.738.117 8.672-.107 4.331-.044 5.665.31 6.626.416 1.1 1.333 1.6 2.143 1.186.738-.383 2.454-2.271 3.573-3.947 2.593-3.84 4.17-6.816 6.07-11.428.384-.907.897-1.504 1.43-1.643.212-.064 3.231-.116 6.943-.128l6.56-.021.555.234c.715.318.992.738.992 1.493 0 1.44-1.504 4.395-4.085 8.011-.352.502-1.685 2.272-2.955 3.947-2.807 3.689-3.415 4.557-3.841 5.45-.535 1.132-.405 2.06.437 3.159.246.31 1.483 1.558 2.751 2.773 3.553 3.402 5.165 5.193 6.475 7.158.94 1.417 1.302 2.463 1.152 3.36-.076.492-.564 1.078-1.12 1.366-.661.333-1.675.395-7.253.469l-5.28.075-.868-.29c-2.176-.723-3.627-1.93-6.924-5.75-1.823-2.112-3.178-3.146-4.117-3.158-.864 0-1.963 1.152-2.43 2.582-.319.961-.437 1.696-.536 3.361-.115 1.963-.351 2.422-1.558 2.922-.437.193-5.877.256-7.32.107-2.89-.318-5.57-1.227-8.224-2.795-3.85-2.26-6.209-4.288-8.737-7.508-4.395-5.613-7.378-10.39-11.03-17.6-1.408-2.807-3.062-6.434-3.328-7.297-.266-.897.116-1.632.992-1.91.298-.096 1.963-.15 5.801-.203l5.387-.053.63.234c.992.384 1.407.875 2.08 2.507.576 1.375 3.68 7.607 4.65 9.345.993 1.761 2.05 3.232 2.956 4.109 1.12 1.1 1.62 1.366 2.412 1.302.673-.064.868-.213 1.27-1.12 1.013-2.187 1.172-9.58.266-12.481-.52-1.654-1.302-2.283-3.457-2.742-.373-.087-.373-.212-.032-.714.832-1.195 2.315-1.771 5.141-2.005 1.548-.128 6.134-.14 7.404-.01z"/></svg>