<svg xmlns="http://www.w3.org/2000/svg" width="20" height="20" fill="none"><path fill="#fff" d="M9.773 0C4.303.018-.07 4.456.001 9.913a9.7 9.7 0 0 0 .59 3.22 9.7 9.7 0 0 0 1.624 2.843.85.85 0 0 1 .193.473.85.85 0 0 1-.108.498l-.845 1.51a.547.547 0 0 0 .614.796l2.861-.727a.85.85 0 0 1 .596.06q1.92.932 4.055.977c5.501.125 10.016-4.26 10.033-9.749.017-5.428-4.398-9.832-9.84-9.814m.034 18.36a8.63 8.63 0 0 1-5.455-1.947 8.57 8.57 0 0 1-3.144-6.63c0-4.737 3.85-8.578 8.6-8.578 4.73 0 8.568 3.811 8.598 8.523.03 4.728-3.86 8.632-8.599 8.632"/><path fill="#fff" d="m8.27 5.613.003.008.513 1.014a1.13 1.13 0 0 1-.017 1.056 1.1 1.1 0 0 1-.224.287 1.13 1.13 0 0 0-.352.99q.026.18.107.345c.308.617.841 1.467 1.655 2.08q.28.213.631.23a1.1 1.1 0 0 0 .652-.163l.33-.2q.225-.137.488-.16.263-.025.509.068l1.313.498a1.13 1.13 0 0 1 .634.597 1.12 1.12 0 0 1-.027.986l-.364.703a1.13 1.13 0 0 1-.548.517 1.14 1.14 0 0 1-.751.062c-2.062-.532-6.976-2.382-7.372-7.975q-.024-.34.144-.638.168-.297.472-.453l.67-.343a1.13 1.13 0 0 1 .868-.071 1.13 1.13 0 0 1 .665.562"/></svg>